<svg xmlns="http://www.w3.org/2000/svg" xmlns:xlink="http://www.w3.org/1999/xlink" x="0px" y="0px" width="16px" height="16px" viewBox="0 0 16 16"><g transform="translate(0, 0)"><polygon points="10.018 0.979 5.132 8.304 7.696 10.868 15.018 5.979 16 0 10.018 0.979" fill="#e4da0f" data-color="color-2"></polygon><path d="M8.707,13.293l-6-6A1,1,0,1,0,1.293,8.707l1.939,1.939L.293,13.586A1,1,0,0,0,.293,15L1,15.707a1,1,0,0,0,1.414,0l2.94-2.939,1.939,1.939a1,1,0,0,0,1.414-1.414Z" fill="#e4da0f"></path></g></svg>