<svg xmlns="http://www.w3.org/2000/svg" xmlns:xlink="http://www.w3.org/1999/xlink" x="0px" y="0px" width="48px" height="48px" viewBox="0 0 48 48"><g transform="translate(0, 0)"><path d="M24,11h0a5,5,0,0,1-5-5h0a5,5,0,0,1,5-5h0a5,5,0,0,1,5,5h0A5,5,0,0,1,24,11Z" fill="#5a7a84"></path><path d="M15,26V17a4,4,0,0,1,4-4H29a4,4,0,0,1,4,4v9Z" fill="#335262"></path><path d="M14,47H34a1,1,0,0,0,1-1V31H13V46A1,1,0,0,0,14,47Z" fill="#c6a279"></path><path d="M11,31H37a1,1,0,0,0,1-1V27a1,1,0,0,0-1-1H11a1,1,0,0,0-1,1v3A1,1,0,0,0,11,31Z" fill="#ddbe99"></path></g></svg>