<svg xmlns="http://www.w3.org/2000/svg" xmlns:xlink="http://www.w3.org/1999/xlink" x="0px" y="0px" width="32px" height="32px" viewBox="0 0 32 32"><g stroke-width="1" transform="translate(0.5, 0.5)"><path data-color="color-2" d="M29,9a2,2,0,0,1,2,2V22a2,2,0,0,1-2,2H27v5l-7-5H14" fill="none" stroke="#293340" stroke-linecap="square" stroke-miterlimit="10" stroke-width="1" stroke-linejoin="miter"></path>
<path d="M23,2H3A2,2,0,0,0,1,4V17a2,2,0,0,0,2,2H6v7l8-7h9a2,2,0,0,0,2-2V4A2,2,0,0,0,23,2Z" fill="none" stroke="#293340" stroke-linecap="square" stroke-miterlimit="10" stroke-width="1" stroke-linejoin="miter"></path></g></svg>