<svg xmlns="http://www.w3.org/2000/svg" xmlns:xlink="http://www.w3.org/1999/xlink" x="0px" y="0px" width="48px" height="48px" viewBox="0 0 48 48"><g transform="translate(0, 0)"><path d="M33,15H31V10a7,7,0,0,0-14,0v5H15V10a9,9,0,0,1,18,0Z" fill="#b3b3b3"></path><circle cx="14" cy="44" r="3" fill="#444"></circle><circle cx="24" cy="44" r="3" fill="#444"></circle><circle cx="34" cy="44" r="3" fill="#444"></circle><circle cx="44" cy="44" r="3" fill="#444"></circle><circle cx="4" cy="44" r="3" fill="#444"></circle><path d="M36,15H12a3,3,0,0,0-3,3V34a3,3,0,0,0,3,3H36a3,3,0,0,0,3-3V18A3,3,0,0,0,36,15Z" fill="#efd358"></path><circle cx="24" cy="24" r="4" fill="#a58c21"></circle><rect x="23" y="26" width="2" height="6" rx="1" fill="#a58c21"></rect></g></svg>